<svg width="200" height="211" viewBox="0 0 200 211" fill="none" xmlns="http://www.w3.org/2000/svg">
<path d="M100 1.35059C44.7715 1.35059 0 45.126 0 99.1258C0 153.126 44.7715 196.901 100 196.901C155.229 196.901 200 153.126 200 99.1258C200 45.126 155.229 1.35059 100 1.35059ZM96.6065 37.4911H103.394V57.0533H96.6065V37.4911ZM68.8477 43.3633L80.3223 59.3807L74.756 63.2001L63.2813 47.1827L68.8477 43.3633ZM131.152 43.3633L136.719 47.1827L125.244 63.2001L119.678 59.3807L131.152 43.3633ZM100 62.4005C116.626 62.4005 130.102 72.2674 130.102 84.4452L113.001 135.087H86.9995L69.8975 84.4452C69.8975 72.2673 83.3753 62.4005 100 62.4005ZM45.935 68.2727L64.7338 74.9685L62.4023 81.2108L43.6157 74.515L45.935 68.2727ZM154.065 68.2727L156.384 74.515L137.586 81.2108L135.266 74.9685L154.065 68.2727ZM63.8305 96.8343L65.5883 103.256L46.2647 108.316L44.5068 101.895L63.8305 96.8343ZM136.17 96.8343L155.493 101.895L153.735 108.316L134.412 103.256L136.17 96.8343ZM86.6212 138.787H113.379V147.584H86.6212V138.787ZM86.6212 151.964H113.379V160.76H86.6212V151.964Z" fill="#D13B3B"/>
</svg>
