<svg width="50" height="51" viewBox="0 0 50 51" fill="none" xmlns="http://www.w3.org/2000/svg">
<path d="M39.7999 12.906C40.0131 12.6884 40.2677 12.5156 40.5486 12.3976C40.8295 12.2795 41.1311 12.2188 41.4358 12.2188C41.7405 12.2188 42.0421 12.2795 42.323 12.3976C42.6039 12.5156 42.8585 12.6884 43.0718 12.906C43.9655 13.8092 43.978 15.2685 43.103 16.1873L24.6249 38.031C24.4151 38.2614 24.1605 38.4466 23.8767 38.5752C23.5929 38.7038 23.2858 38.7731 22.9743 38.779C22.6627 38.7848 22.3533 38.7271 22.0648 38.6092C21.7764 38.4913 21.515 38.3159 21.2968 38.0935L10.053 26.6998C9.61937 26.2576 9.37646 25.6629 9.37646 25.0435C9.37646 24.4242 9.61937 23.8295 10.053 23.3873C10.2663 23.1697 10.5208 22.9968 10.8017 22.8788C11.0826 22.7608 11.3843 22.7 11.6889 22.7C11.9936 22.7 12.2953 22.7608 12.5762 22.8788C12.8571 22.9968 13.1116 23.1697 13.3249 23.3873L22.8624 33.0529L39.7374 12.9748C39.7568 12.9506 39.7777 12.9277 39.7999 12.906Z" fill="black"/>
</svg>
