<svg width="200" height="201" viewBox="0 0 200 201" fill="none" xmlns="http://www.w3.org/2000/svg">
<path d="M100 91.7988L91.6667 116.799L100 141.799M100 91.7988L79.1667 79.2988L75 116.799M100 91.7988L129.167 108.465V154.299M100 141.799H87.5L75 116.799M100 141.799L129.167 154.299M75 116.799V50.1322L108.333 16.7988M75 116.799L83.3333 141.799M83.3333 141.799H50L25 183.465M83.3333 141.799L91.6667 87.6322L83.3333 112.632V141.799ZM170.833 183.465L129.167 154.299M116.667 70.9655C114.457 70.9655 112.337 70.0875 110.774 68.5247C109.211 66.9619 108.333 64.8423 108.333 62.6322C108.333 60.422 109.211 58.3024 110.774 56.7396C112.337 55.1768 114.457 54.2988 116.667 54.2988C118.877 54.2988 120.996 55.1768 122.559 56.7396C124.122 58.3024 125 60.422 125 62.6322C125 64.8423 124.122 66.9619 122.559 68.5247C120.996 70.0875 118.877 70.9655 116.667 70.9655Z" stroke="#D13B3B" stroke-width="16.6667" stroke-linecap="round" stroke-linejoin="round"/>
</svg>
