<svg width="29" height="28" viewBox="0 0 29 28" fill="none" xmlns="http://www.w3.org/2000/svg">
<g clip-path="url(#clip0_636_917)">
<rect width="27.5" height="27.5" transform="translate(0.75 0.25)" fill="white"/>
<path d="M14.5 0.25C6.92499 0.25 0.75 6.42506 0.75 14C0.75 21.5749 6.92499 27.75 14.5 27.75C22.075 27.75 28.25 21.575 28.25 14C28.25 6.42499 22.0749 0.25 14.5 0.25ZM14.5 3.44688C20.3468 3.44688 25.051 8.15316 25.051 14C25.051 19.8468 20.3468 24.551 14.5 24.551C8.65316 24.551 3.94688 19.8468 3.94688 14C3.94688 8.15316 8.65316 3.44688 14.5 3.44688ZM14.7857 6.95746C12.0954 6.90204 9.38775 8.70618 8.70561 11.3596C8.00299 13.6679 8.19783 16.3226 9.42103 18.4151C10.4822 20.0847 12.4467 21.0536 14.4119 21.0297C15.7625 21.0795 17.1733 20.9345 18.3994 20.3615C18.9626 19.8275 18.5579 18.9816 18.7152 18.3227C18.7657 17.8926 18.3558 17.409 17.9074 17.6158C16.3708 18.0125 14.6178 18.4197 13.1379 17.6653C11.8433 16.9002 11.5035 15.2541 11.5501 13.8561C11.5578 12.4951 12.0348 10.9601 13.3183 10.294C14.6592 9.61279 16.2513 9.95901 17.5572 10.5411C18.1684 10.6209 18.6179 10.053 18.7217 9.512C18.9361 9.05048 19.173 8.59852 19.3641 8.12628C17.993 7.30664 16.383 6.92143 14.7857 6.95746Z" fill="#D13B3B"/>
</g>
<defs>
<clipPath id="clip0_636_917">
<rect width="27.5" height="27.5" fill="white" transform="translate(0.75 0.25)"/>
</clipPath>
</defs>
</svg>
