<svg width="200" height="173" viewBox="0 0 200 173" fill="none" xmlns="http://www.w3.org/2000/svg">
<path d="M151.691 0.869141L148.871 14.5082C146.014 14.962 143.229 15.7962 140.589 16.9891L130.885 7.09039L119.833 16.1201L127.392 27.782C125.708 30.1146 124.333 32.6795 123.288 35.439L109.48 35.376L107.996 49.6574L121.505 52.5036C121.959 55.4196 122.796 58.2076 123.962 60.8407L114.158 70.6639L123.101 81.8221L134.652 74.1775C136.986 75.8953 139.537 77.2928 142.236 78.3335L142.173 92.2622L156.318 93.7605L159.125 80.1214C162.016 79.6634 164.797 78.8314 167.407 77.653L177.124 87.5517L188.175 78.5095L180.604 66.8601C182.306 64.5029 183.69 61.9281 184.72 59.2031L198.516 59.2536L200 44.9722L186.491 42.1511C186.037 39.2309 185.215 36.4124 184.046 33.7761L193.85 23.978L184.895 12.8199L173.356 20.4518C171.045 18.7504 168.495 17.3509 165.76 16.296L165.822 2.36728L151.691 0.869141ZM154.035 34.0411C154.48 34.0426 154.931 34.0563 155.383 34.1041C162.608 34.8705 167.842 41.4044 167.083 48.7003C166.324 55.9958 159.852 61.2922 152.626 60.5256C145.4 59.7591 140.154 53.2252 140.913 45.9297C141.625 39.0898 147.367 34.0177 154.035 34.0411ZM52.5383 35.2123L50.6425 54.1786C46.775 55.2197 43.1117 56.7572 39.7282 58.7375L25.1092 46.6729L11.3508 60.5639L23.3005 75.3364C21.3392 78.7537 19.8155 82.4496 18.7852 86.3556L0 88.2573V107.903L18.785 109.818C19.8014 113.672 21.3198 117.373 23.3003 120.824L11.3507 135.597L25.109 149.488L39.7405 137.423C43.1588 139.423 46.8247 140.956 50.6423 141.982L52.5382 160.949H71.9968L73.8803 141.982C77.749 140.942 81.41 139.404 84.7943 137.423L99.4257 149.488L113.184 135.597L101.234 120.837C103.196 117.421 104.719 113.722 105.75 109.818L124.535 107.903V88.2573L105.75 86.3554C104.719 82.4473 103.198 78.7422 101.235 75.3232L113.184 60.5633L99.4258 46.6724L84.807 58.737C81.421 56.7556 77.751 55.2192 73.88 54.1779L71.9965 35.2118L52.5383 35.2123ZM62.2677 79.9075C72.2092 79.9075 80.267 88.0432 80.267 98.0804C80.267 108.117 72.2092 116.253 62.2677 116.253C52.3263 116.253 44.2683 108.117 44.2683 98.0804C44.2683 88.0432 52.3263 79.9075 62.2677 79.9075ZM144.88 104.176L142.897 114.15C140.865 114.485 138.918 115.101 137.084 115.963L130.248 108.722L122.49 115.334L127.803 123.86C126.62 125.566 125.644 127.445 124.91 129.464L115.218 129.413L114.17 139.866L123.662 141.945C123.975 144.046 124.554 146.099 125.384 148.053L118.499 155.231L124.785 163.392L132.906 157.8C134.537 159.05 136.329 160.071 138.232 160.835L138.194 171.036L148.135 172.132L150.106 162.145C152.138 161.81 154.084 161.206 155.919 160.344L162.754 167.585L170.525 160.974L165.199 152.448C166.383 150.742 167.359 148.861 168.093 146.843L177.798 146.881L178.833 136.441L169.341 134.363C169.022 132.227 168.44 130.171 167.619 128.242L174.505 121.076L168.218 112.903L160.11 118.495C158.486 117.25 156.694 116.231 154.772 115.46L154.822 105.271L144.88 104.176ZM146.526 128.431C146.839 128.433 147.157 128.447 147.474 128.482C152.553 129.043 156.228 133.824 155.694 139.162C155.161 144.499 150.62 148.374 145.541 147.814C140.462 147.253 136.775 142.472 137.308 137.134C137.808 132.13 141.84 128.414 146.526 128.431Z" fill="#D13B3B"/>
</svg>
