<svg width="54" height="36" viewBox="0 0 54 36" fill="none" xmlns="http://www.w3.org/2000/svg">
<path fill-rule="evenodd" clip-rule="evenodd" d="M0 34C0 33.4696 0.258604 32.9609 0.71892 32.5858C1.17924 32.2107 1.80356 32 2.45455 32H51.5455C52.1964 32 52.8208 32.2107 53.2811 32.5858C53.7414 32.9609 54 33.4696 54 34C54 34.5304 53.7414 35.0391 53.2811 35.4142C52.8208 35.7893 52.1964 36 51.5455 36H2.45455C1.80356 36 1.17924 35.7893 0.71892 35.4142C0.258604 35.0391 0 34.5304 0 34ZM0 18C0 17.4696 0.258604 16.9609 0.71892 16.5858C1.17924 16.2107 1.80356 16 2.45455 16H51.5455C52.1964 16 52.8208 16.2107 53.2811 16.5858C53.7414 16.9609 54 17.4696 54 18C54 18.5304 53.7414 19.0391 53.2811 19.4142C52.8208 19.7893 52.1964 20 51.5455 20H2.45455C1.80356 20 1.17924 19.7893 0.71892 19.4142C0.258604 19.0391 0 18.5304 0 18ZM0 2C0 1.46957 0.258604 0.96086 0.71892 0.585787C1.17924 0.210714 1.80356 0 2.45455 0H51.5455C52.1964 0 52.8208 0.210714 53.2811 0.585787C53.7414 0.96086 54 1.46957 54 2C54 2.53043 53.7414 3.03914 53.2811 3.41421C52.8208 3.78929 52.1964 4 51.5455 4H2.45455C1.80356 4 1.17924 3.78929 0.71892 3.41421C0.258604 3.03914 0 2.53043 0 2Z" fill="white"/>
</svg>
