<svg width="200" height="201" viewBox="0 0 200 201" fill="none" xmlns="http://www.w3.org/2000/svg">
<path d="M53.4999 94.3691H87.4999L73.1249 73.3691C69.7322 68.7978 65.4339 64.9745 60.4982 62.1378C55.5625 59.3011 50.0952 57.5118 44.4374 56.8816L37.4999 56.8691V76.1191C37.1114 78.3622 37.2184 80.6631 37.8136 82.8603C38.4088 85.0576 39.4777 87.0979 40.9452 88.8382C42.4127 90.5785 44.2433 91.9765 46.3085 92.9342C48.3737 93.8918 50.6235 94.3859 52.8999 94.3816L53.5249 94.3691H53.4999ZM162.5 94.3691V90.7441C162.501 85.1438 160.304 79.7667 156.381 75.7694C152.459 71.7721 147.124 69.4739 141.525 69.3691H82.8749C89.1249 77.1191 99.9999 94.3691 99.9999 94.3691H162.5Z" fill="#D13B3B"/>
<path d="M187.5 38.6191C184.185 38.6191 181.005 39.9361 178.661 42.2803C176.317 44.6245 175 47.8039 175 51.1191V74.8691H25V24.8691C25 21.5539 23.683 18.3745 21.3388 16.0303C18.9946 13.6861 15.8152 12.3691 12.5 12.3691C9.18479 12.3691 6.00537 13.6861 3.66117 16.0303C1.31696 18.3745 0 21.5539 0 24.8691L0 137.369H25V112.369H175V137.369H200V51.1191C200 47.8039 198.683 44.6245 196.339 42.2803C193.995 39.9361 190.815 38.6191 187.5 38.6191Z" fill="#D13B3B"/>
</svg>
