<svg width="232" height="201" viewBox="0 0 232 201" fill="none" xmlns="http://www.w3.org/2000/svg">
<path d="M228 81.2821C226 85.8853 223.167 90.1049 219.5 93.9408C215.833 97.7768 212.5 100.654 209.5 102.572C206.5 104.49 202 107.079 196 110.34C190 113.6 185.667 115.998 183 117.532V159.536C183 166.057 180.417 174.4 175.25 184.566C170.083 194.731 162 199.814 151 199.814C140 199.814 131.667 197.129 126 191.758C120.333 186.388 117.5 181.209 117.5 176.223V137.671C114.833 136.904 112.5 135.753 110.5 134.219V176.223C110.5 180.059 108.333 183.799 104 187.443C99.6665 191.087 94.4998 192.909 88.4998 192.909C82.1665 192.909 74.4998 188.977 65.4998 181.113C56.4998 173.25 51.9998 166.057 51.9998 159.536V114.08C29.9998 104.106 16.4998 95.4752 11.4998 88.1869C4.1665 78.9805 0.833171 72.6511 1.49984 69.1988C1.49984 68.4316 1.6665 67.6644 1.99984 66.8972C2.6665 64.9792 5.33317 65.5546 9.99984 68.6234C14.6665 71.6922 20.4165 75.5281 27.2498 80.1313C34.0832 84.7345 39.4998 87.4197 43.4998 88.1869C60.4998 92.79 77.3332 94.708 93.9998 93.9408C101.667 93.5572 109.167 97.2014 116.5 104.873L117.5 106.024V100.846C117.5 95.4752 124.833 92.79 139.5 92.79H176C178.667 92.79 185.917 90.1049 197.75 84.7345C209.583 79.3641 217.333 74.5691 221 70.3496C225.333 64.5956 228.667 63.0612 231 65.7464C232.667 68.048 231.667 73.2265 228 81.2821ZM151.5 78.9805C158.5 78.9805 164.5 76.1035 169.5 70.3496C174.5 64.5956 177 57.6908 177 49.6353C177 41.5797 174.5 34.675 169.5 28.921C164.5 23.167 158.5 20.29 151.5 20.29C144.5 20.29 138.5 23.167 133.5 28.921C128.5 34.675 126 41.5797 126 49.6353C126 57.6908 128.5 64.5956 133.5 70.3496C138.5 76.1035 144.5 78.9805 151.5 78.9805ZM84.4998 78.9805C91.4998 78.9805 97.4998 76.1035 102.5 70.3496C107.5 64.5956 110 57.6908 110 49.6353C110 41.5797 107.5 34.675 102.5 28.921C97.4998 23.167 91.4998 20.29 84.4998 20.29C77.4998 20.29 71.4998 23.167 66.4998 28.921C61.4998 34.675 58.9998 41.5797 58.9998 49.6353C58.9998 57.6908 61.4998 64.5956 66.4998 70.3496C71.4998 76.1035 77.4998 78.9805 84.4998 78.9805Z" fill="#D13B3B"/>
</svg>
