<svg width="200" height="201" viewBox="0 0 200 201" fill="none" xmlns="http://www.w3.org/2000/svg">
<path d="M0.976562 81.8115C0.390625 86.499 0 91.2646 0 96.1084C0 138.687 23.3203 175.757 57.8516 195.405L64.2969 181.812V88.96L57.1484 81.8115H0.976562ZM200 88.96C200 81.8115 192.852 74.6631 185.703 74.6631H128.555C132.109 60.3662 135.703 46.1084 135.703 38.96C135.703 24.6631 128.555 10.4053 125 6.81152C124.922 6.7334 121.445 3.25684 114.297 3.25684C103.594 3.25684 103.594 13.96 103.594 13.96C103.594 14.1553 100.039 31.8115 100.039 38.96C100.039 46.1084 85.7422 74.6631 78.5938 81.8115L71.4453 85.3662V185.366L78.5938 188.921H157.148C171.445 188.921 178.594 181.772 178.594 174.624C178.594 167.476 171.445 160.327 164.297 160.327C178.594 160.327 185.742 153.179 185.742 146.03C185.742 138.882 178.594 131.733 171.445 131.733C185.742 131.733 192.891 124.585 192.891 117.437C192.891 110.288 185.742 103.14 178.594 103.14C192.852 103.257 200 96.1084 200 88.96Z" fill="#D13B3B"/>
</svg>
