<svg width="106" height="86" viewBox="0 0 106 86" fill="none" xmlns="http://www.w3.org/2000/svg">
<path d="M0.444336 71.3377V14.2675C0.444336 10.4836 1.82375 6.85455 4.27913 4.17887C6.7345 1.50318 10.0647 0 13.5371 0H92.0939C95.5663 0 98.8965 1.50318 101.352 4.17887C103.807 6.85455 105.187 10.4836 105.187 14.2675V71.3377C105.187 75.1217 103.807 78.7507 101.352 81.4264C98.8965 84.1021 95.5663 85.6053 92.0939 85.6053H13.5371C10.0647 85.6053 6.7345 84.1021 4.27913 81.4264C1.82375 78.7507 0.444336 75.1217 0.444336 71.3377ZM44.8944 22.0648C44.4049 21.685 43.829 21.4594 43.2298 21.4126C42.6305 21.3659 42.031 21.4997 41.4969 21.7996C40.9628 22.0994 40.5147 22.5537 40.2018 23.1126C39.8888 23.6715 39.7231 24.3135 39.7227 24.9682V60.6371C39.7231 61.2918 39.8888 61.9338 40.2018 62.4927C40.5147 63.0516 40.9628 63.5058 41.4969 63.8057C42.031 64.1056 42.6305 64.2394 43.2298 64.1926C43.829 64.1459 44.4049 63.9203 44.8944 63.5405L67.8068 45.7061C68.2311 45.3761 68.5769 44.9405 68.8156 44.4355C69.0542 43.9305 69.1787 43.3707 69.1787 42.8026C69.1787 42.2346 69.0542 41.6748 68.8156 41.1698C68.5769 40.6648 68.2311 40.2291 67.8068 39.8992L44.8944 22.0648Z" fill="#D13B3B"/>
</svg>
